<svg fill="none" xmlns="http://www.w3.org/2000/svg" viewBox="0 0 512 512"><path d="M87.636 277.474C84.532 279.026 160.597 471 160.597 471c21.733-2.587 104.524-21.733 150.06-46.053 45.535-24.32 77.217-49.877 99.868-89.001 22.767-39.326 26.907-71.408 18.11-111.769-7.037-32.289-42.43-76.583-61.576-90.554-2.07 2.07-1.183 12.937-.517 13.971 4.657 7.245 12.936 27.943 13.453 55.885.518 27.942-13.454 46.053-47.088 68.821-33.634 22.767-102.972 30.012-148.508 25.355-36.323-3.715-93.658-21.733-96.763-20.181z" fill="#539CE6"/><path d="M353.088 189.508c1.552 27.425-16.023 51.227-51.745 51.227-35.722 0-77.617-33.634-81.24-68.82-1.034-28.46 13.953-51.228 49.676-51.228 44.5 2.07 83.309 39.957 83.309 68.821z" fill="#539CE6"/><path d="M234.075 291.963c-1.553 2.069-144.886-25.355-144.886-25.355-31.047-143.334 17.076-181.107 35.186-196.63C155.422 43.364 193.714 41 220.103 41c25.873 0 72.961 14.489 95.211 22.768 13.971 6.21 34.152 13.97 39.326 19.145 5.175 5.175-7.491 6.035-12.936 5.175-41.559-6.562-56.402-5.175-78.652-4.14-11.557 0-48.226 10.35-61.059 45.536-12.833 35.186 33.634 160.409 32.082 162.479z" fill="#539CE6"/></svg>