<svg width="492" height="423" viewBox="0 0 492 423" fill="none" xmlns="http://www.w3.org/2000/svg">
<g clip-path="url(#clip0)">
<path d="M81.2723 68.6238H8.82086V132.797H81.2723V68.6238Z" fill="#D0CDE1"/>
<path d="M81.2723 184.135H8.82086V248.308H81.2723V184.135Z" fill="#D0CDE1"/>
<path d="M314.071 68.6238H241.62V132.797H314.071V68.6238Z" fill="#D0CDE1"/>
<path d="M314.071 184.135H241.62V248.308H314.071V184.135Z" fill="#D0CDE1"/>
<path d="M198.494 68.6238H126.043V132.797H198.494V68.6238Z" fill="#3F3D56"/>
<path d="M198.494 184.135H126.043V248.308H198.494V184.135Z" fill="#3F3D56"/>
<path d="M186 127.021L139.194 125.964C144.799 107.871 146.008 90.6447 140.356 74.7719L187.161 75.829C182.427 92.5185 182.027 110.135 186 127.021Z" fill="#539CE6"/>
<path d="M151.424 84.3087L151.398 85.4338L175.647 85.9815L175.672 84.8564L151.424 84.3087Z" fill="white"/>
<path d="M151.321 88.8091L151.296 89.9343L175.545 90.4819L175.57 89.3568L151.321 88.8091Z" fill="white"/>
<path d="M151.219 93.3096L151.194 94.4347L175.442 94.9824L175.468 93.8573L151.219 93.3096Z" fill="white"/>
<path d="M151.117 97.81L151.092 98.9351L175.34 99.4828L175.366 98.3577L151.117 97.81Z" fill="white"/>
<path d="M151.015 102.31L150.99 103.436L175.238 103.983L175.264 102.858L151.015 102.31Z" fill="white"/>
<path d="M150.913 106.811L150.887 107.936L175.136 108.484L175.162 107.359L150.913 106.811Z" fill="white"/>
<path d="M150.811 111.311L150.785 112.436L175.034 112.984L175.059 111.859L150.811 111.311Z" fill="white"/>
<path d="M150.709 115.812L150.683 116.937L174.932 117.485L174.957 116.359L150.709 115.812Z" fill="white"/>
<path d="M199.42 77.8932C206.921 77.8932 213.001 71.8277 213.001 64.3456C213.001 56.8635 206.921 50.798 199.42 50.798C191.92 50.798 185.84 56.8635 185.84 64.3456C185.84 71.8277 191.92 77.8932 199.42 77.8932Z" fill="#07A59E"/>
<path d="M198.936 70.9469L193.792 64.6754L194.602 64.0155L198.86 69.2078L206.301 58.3206L207.164 58.9075L198.936 70.9469Z" fill="white"/>
<path d="M224.437 423C348.39 423 448.874 417.892 448.874 411.592C448.874 405.291 348.39 400.183 224.437 400.183C100.484 400.183 0 405.291 0 411.592C0 417.892 100.484 423 224.437 423Z" fill="#D0CDE1"/>
<path d="M432.351 393.366L485.292 314.828L432.459 401.815L432.57 410.652C428.705 410.682 424.877 410.617 421.087 410.46L423.713 296.86L423.641 295.983L423.738 295.814L423.989 285.08L366.012 201.108L423.921 277.046L424.127 279.314L426.11 193.485L376.033 106.426L426.252 178.408L425.728 0.59184L425.729 0L425.746 0.582056L429.071 140.725L474.709 83.7987L429.22 152.798L430.216 229.57L472.213 154.643L430.37 240.857L430.925 283.546L492 179.174L431.111 298.438L432.351 393.366Z" fill="#D0CDE1"/>
<path d="M194.744 340.41L155.346 315.18C169.58 302.65 179.609 288.575 183.075 272.089L222.473 297.319C209.715 309.103 200.173 323.932 194.744 340.41Z" fill="#539CE6"/>
<path d="M187.541 285.983L186.931 286.93L207.342 300L207.952 299.053L187.541 285.983Z" fill="white"/>
<path d="M185.103 289.771L184.493 290.718L204.905 303.789L205.514 302.842L185.103 289.771Z" fill="white"/>
<path d="M182.665 293.558L182.056 294.505L202.467 307.576L203.076 306.629L182.665 293.558Z" fill="white"/>
<path d="M180.227 297.346L179.618 298.293L200.029 311.364L200.639 310.417L180.227 297.346Z" fill="white"/>
<path d="M177.79 301.135L177.18 302.082L197.591 315.153L198.201 314.206L177.79 301.135Z" fill="white"/>
<path d="M175.352 304.923L174.742 305.87L195.154 318.941L195.763 317.994L175.352 304.923Z" fill="white"/>
<path d="M172.914 308.711L172.305 309.658L192.716 322.729L193.325 321.782L172.914 308.711Z" fill="white"/>
<path d="M170.476 312.499L169.867 313.446L190.278 326.517L190.888 325.57L170.476 312.499Z" fill="white"/>
<path d="M110.955 419.209L120.796 400.183C138.955 403.163 142.16 402.554 158.029 400.499L162.249 421.147C145.278 418.583 128.072 417.932 110.955 419.209Z" fill="#539CE6"/>
<path d="M152.01 415.778L151.701 405.081L152.828 405.123L153.137 415.82L152.01 415.778Z" fill="white"/>
<path d="M147.501 415.607L147.192 404.91L148.319 404.953L148.628 415.65L147.501 415.607Z" fill="white"/>
<path d="M142.991 415.437L142.683 404.74L143.81 404.782L144.119 415.479L142.991 415.437Z" fill="white"/>
<path d="M138.888 404.569L138.482 415.266L139.609 415.309L140.015 404.612L138.888 404.569Z" fill="white"/>
<path d="M134.379 404.399L133.972 415.096L135.1 415.139L135.506 404.441L134.379 404.399Z" fill="white"/>
<path d="M129.463 414.925L130.584 404.228L131.711 404.271L130.59 414.968L129.463 414.925Z" fill="white"/>
<path d="M124.954 414.755L126.075 404.058L127.202 404.1L126.081 414.798L124.954 414.755Z" fill="white"/>
<path d="M120.445 414.585L121.566 403.887L122.693 403.93L121.572 414.627L120.445 414.585Z" fill="white"/>
<path d="M181.908 253.655L182.623 260.786C182.623 260.786 176.905 281.463 185.482 280.037C194.06 278.611 191.2 260.786 191.2 260.786L189.771 255.081L181.908 253.655Z" fill="#FFB8B8"/>
<path d="M273.399 254.368L272.684 261.499C272.684 261.499 278.402 282.176 269.825 280.75C261.248 279.324 264.107 261.499 264.107 261.499L265.536 255.794L273.399 254.368Z" fill="#FFB8B8"/>
<path d="M202.279 388.775L200.135 403.748L215.145 402.322L213 387.349L202.279 388.775Z" fill="#FFB8B8"/>
<path d="M281.619 388.775L283.763 403.748L268.752 402.322L270.897 387.349L281.619 388.775Z" fill="#FFB8B8"/>
<path d="M199.778 246.525C199.778 246.525 196.204 247.951 199.778 302.141L201.207 390.557H215.502L221.221 312.124L229.083 264.351L251.241 326.384L269.11 392.696L283.405 389.131L264.821 304.28C264.821 304.28 268.395 255.081 255.529 246.525C242.664 237.969 199.778 246.525 199.778 246.525Z" fill="#2F2E41"/>
<path d="M203.351 399.114C203.351 399.114 203.055 392.629 201.774 392.306C200.492 391.983 191.2 399.827 191.2 399.827C191.2 399.827 181.194 398.401 181.908 409.096C182.623 419.791 196.918 416.226 196.918 416.226C196.918 416.226 199.778 422.644 205.496 422.644C211.214 422.644 219.791 422.644 220.506 418.365C221.221 414.087 216.932 394.835 215.502 395.548C214.073 396.261 210.499 395.548 210.499 395.548L203.351 399.114Z" fill="#2F2E41"/>
<path d="M280.546 399.114C280.546 399.114 280.843 392.629 282.124 392.306C283.405 391.983 292.697 399.827 292.697 399.827C292.697 399.827 302.704 398.401 301.989 409.096C301.275 419.791 286.979 416.226 286.979 416.226C286.979 416.226 284.12 422.644 278.402 422.644C272.684 422.644 264.107 422.644 263.392 418.365C262.677 414.087 266.966 394.835 268.395 395.548C269.825 396.261 273.399 395.548 273.399 395.548L280.546 399.114Z" fill="#2F2E41"/>
<path d="M227.654 138.144C235.154 138.144 241.234 132.079 241.234 124.597C241.234 117.115 235.154 111.049 227.654 111.049C220.153 111.049 214.073 117.115 214.073 124.597C214.073 132.079 220.153 138.144 227.654 138.144Z" fill="#FFB8B8"/>
<path d="M236.945 126.736C236.945 126.736 237.66 145.988 241.234 148.127C244.808 150.266 219.791 148.127 219.791 148.127L222.65 131.727L236.945 126.736Z" fill="#FFB8B8"/>
<path d="M242.664 145.988C242.664 145.988 229.798 139.57 217.647 143.848C205.496 148.127 199.063 153.118 199.063 153.118L206.925 194.474C206.925 194.474 191.915 248.664 196.204 250.09C200.492 251.516 251.241 245.812 256.244 250.09C261.248 254.368 261.248 245.099 261.248 245.099C261.248 245.099 254.1 227.273 255.529 212.299C256.959 197.326 256.959 192.335 256.959 192.335L264.821 158.822L242.664 145.988Z" fill="#539CE6"/>
<path d="M204.066 153.118H199.063C199.063 153.118 191.2 158.109 191.2 165.239C191.2 172.37 184.053 211.586 184.053 211.586L179.764 255.794L191.915 257.933L202.637 199.465L210.499 183.778L204.066 153.118Z" fill="#539CE6"/>
<path d="M251.241 158.822H264.821C264.821 158.822 269.11 163.1 271.254 173.083C273.399 183.065 275.543 222.282 275.543 222.282L274.113 257.934H263.392L261.962 211.586L254.815 181.639L251.241 158.822Z" fill="#539CE6"/>
<path d="M216.097 123.662L218.972 130.989C220.15 133.992 221.499 137.204 224.26 138.88C227.67 140.949 232.223 139.94 235.521 137.699C238.488 135.683 240.765 132.81 242.047 129.466C243.329 126.121 243.554 122.466 242.692 118.99C241.83 115.514 239.923 112.385 237.226 110.022C234.53 107.659 231.173 106.176 227.606 105.771L227.47 108.224L224.453 105.701C224.23 106.083 223.923 106.41 223.555 106.656C223.188 106.903 222.769 107.063 222.33 107.125C221.891 107.187 221.444 107.149 221.022 107.014C220.6 106.879 220.215 106.65 219.894 106.345C220.687 107.983 219.772 109.982 218.451 111.237C216.829 112.779 212.188 114.632 212.38 117.389C212.509 119.229 215.349 121.756 216.097 123.662Z" fill="#2F2E41"/>
</g>
<defs>
<clipPath id="clip0">
<rect width="492" height="423" fill="white"/>
</clipPath>
</defs>
</svg>
